<svg version="1" xmlns="http://www.w3.org/2000/svg" width="266.667" height="266.667" viewBox="0 0 200.000000 200.000000"><path d="M75.6 42.9c.4 1.5.2 2.1-.4 1.7-.6-.3-1.4-.1-1.8.5-.5.8-.3.9.6.4.8-.5 1.1-.3.8.6-.3.8-1.2 1.3-2.1 1.1-.8-.1-1.8.2-2.2.8-.4.6-.3 1 .2.9 1.9-.3 3.3.2 3.3 1.2 0 .5-.4.8-.8.5-.5-.3-.9.1-.9.8 0 .8.7 1.2 1.6.9.9-.3.5.3-.9 1.3s-2.8 1.8-3.3 1.6c-.4-.1-.6.4-.5 1 .2.7-.3 1.2-1.1 1-1.1-.2-1.2 0-.3 1.1.7.8.8 1.7.4 2.1-.4.4 0 .6.8.4.8-.2 1.5.3 1.6.9.1.7.2 1.9.3 2.5.1.9.4.8 1.1-.2.9-1.3 1-1.3 1.1 0 .1.8 0 1.9-.1 2.5-.1.5.2.6.7.2.4-.5.8-1.6.8-2.5 0-.9.6-1.6 1.3-1.4.8.1 1.1-.2.6-.9-.5-.8-.2-1 .7-.7 1 .4 1.5-.1 1.5-1.2 0-1-.4-1.6-.8-1.4-.4.3-.8 0-.8-.6s-.5-.8-1.1-.4c-.8.5-.8.9.1 1.4.9.5.9.9.1 1.4-.6.4-1.1.1-1.1-.6 0-.9-.3-.9-1 .2-.5.8-1 1.1-1 .7 0-.5.9-2 2-3.4s2-2.2 2-1.6c0 1.2 3.8 1.4 4.5.2.3-.5 0-.6-.8-.3s-1.8 0-2.3-.7c-.4-.8-.3-1 .4-.5.7.4 1.2.2 1.2-.4 0-.6.4-.8 1-.5.6.4.7-.1.3-1.1-.4-1.1-.8-1.3-1.1-.6-.2.7-.8 1.2-1.3 1.2s-.4-1 .2-2.3c1.2-2.1 1.1-2.1-.6-.7-1.5 1.2-1.7 1.2-1 .1.6-1.1.4-1.3-.7-.8-1.2.4-1.4.1-1-1.5.3-1.5.7-1.6 1.3-.7 1.8 2.9 1.6.2-.2-3.1-1.3-2.3-1.7-2.7-1.3-1.1zM73 57.6c-1.1 2.9-.5 4.8 1.3 3.8.7-.4.8-.3.4.1-1 1.2-3.9 1.6-3.2.5.3-.5-.2-1.5-1-2.4-1.4-1.3-1.3-1.6.7-3 2.9-2.1 2.9-2.1 1.8 1zM91 50.4c0 .2.8 1 1.8 1.7 1.5 1.3 1.6 1.2.3-.4S91 49.6 91 50.4zM51.5 54c-.4.6-.1 1 .5 1s.8.5.5 1c-.4.6-1.2.7-1.8.3-.8-.5-.8-.2 0 .9.7.8 1 1.8.7 2.1-.3.3-.2 1.2.2 1.9 1.2 1.9 1.4 3.9.3 3.2-.5-.3-.6-1-.3-1.6.4-.7.2-.8-.5-.4-.8.5-.9 1.2-.3 1.9.5.7.8 2 .7 2.9-.2 1 .1 2 .5 2.3.5.3.7-.4.5-1.6-.3-1.5 0-1.9 1.1-1.5.8.3 1.3.2.9-.3-.3-.5.7-1.9 2.1-3 1.5-1.2 2.3-2.1 1.9-2.1-.5 0-1.8.8-2.9 1.7-1.2.9-.6.2 1.2-1.6 1.7-1.7 3.2-3.4 3.2-3.6 0-.6-2.4 0-3.9.9-1.1.7-1.3.5-.9-.6.7-1.7-2.8-5.2-3.7-3.8zm3.5 2.4c0 .3-.4.8-1 1.1-.5.3-1 .1-1-.4 0-.6.5-1.1 1-1.1.6 0 1 .2 1 .4zM89 58.4c0 .2.8 1 1.8 1.7 1.5 1.3 1.6 1.2.3-.4S89 57.6 89 58.4zM80.7 62.5c-1.9 1.4-2.4 3-.5 1.9.8-.5.9-.2.5.9-.6 1.6-.5 1.6 1.8.1 1.4-.9 2.5-2 2.5-2.4 0-1.5-2.6-1.8-4.3-.5zm2.7.3c.3.5-.1.9-.9.9s-1.2-.4-.9-.9c.3-.4.7-.8.9-.8.2 0 .6.4.9.8zM91 63.8c0 .5.7.9 1.5.9s1.2-.4.9-.9c-.3-.4-.9-.8-1.5-.8-.5 0-.9.4-.9.8z"/><path d="M88.4 64.9c.7 1 .3 1.2-1.3.6-1.3-.4-2.1-.2-2.1.5 0 .6-.4.9-.9.6-.5-.3-1.6.5-2.5 1.9-1.2 1.8-1.3 2.4-.4 2.3.7-.2 1.2.3 1 1-.1.8.2 1.1 1 .6.8-.4 1-.3.5.2s-2.5.9-4.5 1c-2 .1-7.5.4-12.1.8-7.4.7-8.3.6-7.7-.9.3-.9-.1-1.8-1-2.2-1.1-.4-1.2-.8-.4-1.3.9-.5.8-.9-.2-1.3-1-.3-1.4.3-1.4 1.9 0 1.3.3 2.4.6 2.4 1.6 0 .5 3-1.2 3.1-5.8.4-17.4 5-22.6 9-2.9 2.1-5.9 3.9-6.8 3.9-2.2 0-7.2 5.2-8 8.4-1.3 5.3 4.2 14.3 9.1 15 2.2.3 2.7 1.2 3 5 .9 8.6 8 17.2 18.1 21.8 7 3.1 9.2 4 11.9 4.4 1.1.1 3.8.6 6 1.1 3.8.9 19.2.8 24.5 0 16.4-2.7 30.3-12.2 33-22.5.6-2.6 1.4-5.3 1.6-6 .2-.7 1.6-1.7 3.1-2.3 5.5-2.1 9.9-9.7 8.8-15-.8-3.4-4.6-7.9-6.7-7.9-.8 0-3.4-1.8-5.8-3.9-4-3.6-14-8.4-19.7-9.6-1.3-.3-3.3-.7-4.5-1-2.1-.5-6.7-1.2-12.8-2-1.6-.2-2.4-.9-2.4-1.9.1-.9-.2-1.4-.6-1.1-.5.3-1.1.1-1.4-.4-.4-.5.2-1.2 1.1-1.4 1.7-.4 1.7-.5.1-.6-1 0-1.8-.5-1.8-1 0-1.1 1.9-.9 3.8.2.7.5.9 1.4.6 2-.4.8-.2.7.7-.1 1.2-1.1 1.2-1.4-.1-2.3-1.2-.9-1-1 .8-.6 2.6.6 2.9-.5.5-2.4-1.4-1.2-1.5-1.2-.9 0zM149.3 69.1c-6.6 2.1-7.2 2.9-5.2 7.2l1.1 2.5 5.4-1.9c5.9-2.1 14-2.5 17.7-.8 3.2 1.5 4.9 4.6 4.9 9-.1 5.1-1.1 6.8-8.3 13-6.7 5.8-9.8 11.2-9.9 17.1 0 3.6.1 3.8 3.4 3.8 3.2 0 3.4-.2 3.9-4.2.5-3.7 1.6-5.3 8.1-11.4 8.9-8.6 10.3-10.6 11.1-16.1 2.3-15.9-12.7-24.4-32.2-18.2zM155.8 127.4c-3 1.5-3.8 7.9-1.2 10.7 3.6 4 10.4.8 10.4-4.9 0-5.2-4.6-8.1-9.2-5.8z"/></svg>